<svg width="70" height="30" viewBox="0 0 70 30" fill="none" xmlns="http://www.w3.org/2000/svg">
<path d="M30 15C30 23.2843 23.2843 30 15 30C6.71573 30 0 23.2843 0 15C0 6.71573 6.71573 0 15 0C23.2843 0 30 6.71573 30 15ZM4.5 15C4.5 20.799 9.20101 25.5 15 25.5C20.799 25.5 25.5 20.799 25.5 15C25.5 9.20101 20.799 4.5 15 4.5C9.20101 4.5 4.5 9.20101 4.5 15Z" fill="#F5F5F5"/>
<g filter="url(#filter0_d_807_59)">
<path d="M15 0C17.0407 2.43356e-08 19.06 0.41642 20.9343 1.22378C22.8085 2.03113 24.4983 3.21245 25.9003 4.69542C27.3022 6.1784 28.3868 7.93185 29.0876 9.84847C29.7885 11.7651 30.0909 13.8046 29.9763 15.8421L25.4834 15.5895C25.5636 14.1632 25.352 12.7356 24.8614 11.3939C24.3707 10.0523 23.6115 8.82488 22.6302 7.7868C21.6488 6.74871 20.466 5.92179 19.154 5.35664C17.842 4.79149 16.4285 4.5 15 4.5V0Z" fill="#3EB09B"/>
</g>
<path d="M10.29 18.5L13.14 12.3H9.39V11.36H14.28V12.12L11.44 18.5H10.29ZM19.7027 13.01C19.7027 13.33 19.6393 13.61 19.5127 13.85C19.3927 14.0833 19.2193 14.2733 18.9927 14.42C18.766 14.5667 18.506 14.6733 18.2127 14.74V14.78C18.786 14.8467 19.2127 15.0267 19.4927 15.32C19.7793 15.6067 19.9227 15.9867 19.9227 16.46C19.9227 16.8733 19.8227 17.2433 19.6227 17.57C19.4293 17.89 19.126 18.1433 18.7127 18.33C18.306 18.51 17.7827 18.6 17.1427 18.6C16.7627 18.6 16.4093 18.57 16.0827 18.51C15.756 18.45 15.446 18.35 15.1527 18.21V17.25C15.4527 17.4033 15.7727 17.52 16.1127 17.6C16.4593 17.68 16.7893 17.72 17.1027 17.72C17.7093 17.72 18.146 17.6067 18.4127 17.38C18.6793 17.1467 18.8127 16.8233 18.8127 16.41C18.8127 16.1433 18.7427 15.9267 18.6027 15.76C18.4627 15.5867 18.2493 15.46 17.9627 15.38C17.676 15.2933 17.3193 15.25 16.8927 15.25H16.2427V14.38H16.9027C17.3093 14.38 17.6393 14.33 17.8927 14.23C18.146 14.1233 18.3327 13.9767 18.4527 13.79C18.5727 13.6033 18.6327 13.39 18.6327 13.15C18.6327 12.83 18.526 12.5833 18.3127 12.41C18.106 12.23 17.806 12.14 17.4127 12.14C17.1727 12.14 16.9493 12.1667 16.7427 12.22C16.5427 12.2733 16.3593 12.3433 16.1927 12.43C16.026 12.5167 15.8627 12.6133 15.7027 12.72L15.1827 11.99C15.3627 11.8567 15.5627 11.7333 15.7827 11.62C16.0093 11.5067 16.2593 11.42 16.5327 11.36C16.8127 11.2933 17.116 11.26 17.4427 11.26C18.1827 11.26 18.7427 11.4233 19.1227 11.75C19.5093 12.07 19.7027 12.49 19.7027 13.01Z" fill="#282828"/>
<path d="M47.366 15.904C47.366 17.024 47.156 17.962 46.736 18.718C46.3253 19.474 45.7327 20.0433 44.958 20.426C44.1833 20.8087 43.2453 21 42.144 21H39.358V11.004H42.438C43.446 11.004 44.3187 11.1907 45.056 11.564C45.7933 11.9373 46.3627 12.488 46.764 13.216C47.1653 13.9347 47.366 14.8307 47.366 15.904ZM46.036 15.946C46.036 15.0593 45.8867 14.3313 45.588 13.762C45.2987 13.1927 44.8693 12.7727 44.3 12.502C43.74 12.222 43.0587 12.082 42.256 12.082H40.618V19.922H41.976C43.3293 19.922 44.342 19.5907 45.014 18.928C45.6953 18.256 46.036 17.262 46.036 15.946ZM52.2586 13.37C53.1732 13.37 53.8499 13.5707 54.2886 13.972C54.7272 14.3733 54.9466 15.0127 54.9466 15.89V21H54.0506L53.8126 19.936H53.7566C53.5419 20.2067 53.3179 20.4353 53.0846 20.622C52.8606 20.7993 52.5992 20.93 52.3006 21.014C52.0112 21.098 51.6566 21.14 51.2366 21.14C50.7886 21.14 50.3826 21.0607 50.0186 20.902C49.6639 20.7433 49.3839 20.5007 49.1786 20.174C48.9732 19.838 48.8706 19.418 48.8706 18.914C48.8706 18.1673 49.1646 17.5933 49.7526 17.192C50.3406 16.7813 51.2459 16.5573 52.4686 16.52L53.7426 16.478V16.03C53.7426 15.4047 53.6072 14.9707 53.3366 14.728C53.0659 14.4853 52.6832 14.364 52.1886 14.364C51.7966 14.364 51.4232 14.4247 51.0686 14.546C50.7139 14.658 50.3826 14.7887 50.0746 14.938L49.6966 14.014C50.0232 13.8367 50.4106 13.6873 50.8586 13.566C51.3066 13.4353 51.7732 13.37 52.2586 13.37ZM52.6226 17.374C51.6892 17.4113 51.0406 17.5607 50.6766 17.822C50.3219 18.0833 50.1446 18.452 50.1446 18.928C50.1446 19.348 50.2706 19.656 50.5226 19.852C50.7839 20.048 51.1152 20.146 51.5166 20.146C52.1512 20.146 52.6786 19.9733 53.0986 19.628C53.5186 19.2733 53.7286 18.732 53.7286 18.004V17.332L52.6226 17.374ZM56.0882 13.496H57.4042L59.0282 17.766C59.1216 18.018 59.2056 18.2607 59.2802 18.494C59.3642 18.7273 59.4389 18.956 59.5042 19.18C59.5696 19.3947 59.6209 19.6047 59.6582 19.81H59.7142C59.7702 19.5767 59.8589 19.2733 59.9802 18.9C60.1016 18.5173 60.2276 18.1347 60.3582 17.752L61.8842 13.496H63.2142L59.9802 22.036C59.8029 22.5027 59.5929 22.9087 59.3502 23.254C59.1169 23.6087 58.8276 23.8793 58.4822 24.066C58.1462 24.262 57.7356 24.36 57.2502 24.36C57.0262 24.36 56.8302 24.346 56.6622 24.318C56.4942 24.2993 56.3496 24.276 56.2282 24.248V23.268C56.3309 23.2867 56.4522 23.3053 56.5922 23.324C56.7416 23.3427 56.8956 23.352 57.0542 23.352C57.3436 23.352 57.5909 23.296 57.7962 23.184C58.0109 23.0813 58.1929 22.9273 58.3422 22.722C58.4916 22.526 58.6176 22.2927 58.7202 22.022L59.1122 21.028L56.0882 13.496ZM69.2869 18.928C69.2869 19.4133 69.1656 19.8193 68.9229 20.146C68.6803 20.4727 68.3349 20.72 67.8869 20.888C67.4389 21.056 66.9069 21.14 66.2909 21.14C65.7683 21.14 65.3156 21.098 64.9329 21.014C64.5596 20.93 64.2283 20.8133 63.9389 20.664V19.544C64.2376 19.6933 64.5969 19.8333 65.0169 19.964C65.4463 20.0853 65.8803 20.146 66.3189 20.146C66.9443 20.146 67.3969 20.048 67.6769 19.852C67.9569 19.6467 68.0969 19.376 68.0969 19.04C68.0969 18.8533 68.0456 18.6853 67.9429 18.536C67.8403 18.3867 67.6536 18.2373 67.3829 18.088C67.1216 17.9387 66.7436 17.7707 66.2489 17.584C65.7636 17.3973 65.3483 17.2107 65.0029 17.024C64.6576 16.8373 64.3916 16.6133 64.2049 16.352C64.0183 16.0907 63.9249 15.7547 63.9249 15.344C63.9249 14.7093 64.1816 14.2193 64.6949 13.874C65.2176 13.5287 65.8989 13.356 66.7389 13.356C67.1963 13.356 67.6209 13.4027 68.0129 13.496C68.4143 13.58 68.7876 13.7013 69.1329 13.86L68.7129 14.84C68.5076 14.7467 68.2883 14.6673 68.0549 14.602C67.8309 14.5273 67.6023 14.4713 67.3689 14.434C67.1356 14.3873 66.8976 14.364 66.6549 14.364C66.1509 14.364 65.7636 14.448 65.4929 14.616C65.2316 14.7747 65.1009 14.994 65.1009 15.274C65.1009 15.4793 65.1616 15.6567 65.2829 15.806C65.4043 15.946 65.6049 16.086 65.8849 16.226C66.1743 16.3567 66.5569 16.5153 67.0329 16.702C67.5089 16.8793 67.9149 17.0613 68.2509 17.248C68.5869 17.4347 68.8436 17.6633 69.0209 17.934C69.1983 18.1953 69.2869 18.5267 69.2869 18.928Z" fill="#282828"/>
<defs>
<filter id="filter0_d_807_59" x="11" y="0" width="19" height="19.8421" filterUnits="userSpaceOnUse" color-interpolation-filters="sRGB">
<feFlood flood-opacity="0" result="BackgroundImageFix"/>
<feColorMatrix in="SourceAlpha" type="matrix" values="0 0 0 0 0 0 0 0 0 0 0 0 0 0 0 0 0 0 127 0" result="hardAlpha"/>
<feOffset dx="-2" dy="2"/>
<feGaussianBlur stdDeviation="1"/>
<feColorMatrix type="matrix" values="0 0 0 0 0.243137 0 0 0 0 0.690196 0 0 0 0 0.607843 0 0 0 0.2 0"/>
<feBlend mode="normal" in2="BackgroundImageFix" result="effect1_dropShadow_807_59"/>
<feBlend mode="normal" in="SourceGraphic" in2="effect1_dropShadow_807_59" result="shape"/>
</filter>
</defs>
</svg>
