<svg width="122" height="18" viewBox="0 0 122 18" fill="none" xmlns="http://www.w3.org/2000/svg">
<path d="M26.24 14H20.576V13.124L22.82 10.856C23.252 10.424 23.616 10.04 23.912 9.704C24.208 9.368 24.432 9.04 24.584 8.72C24.736 8.392 24.812 8.036 24.812 7.652C24.812 7.18 24.672 6.824 24.392 6.584C24.112 6.336 23.748 6.212 23.3 6.212C22.884 6.212 22.516 6.284 22.196 6.428C21.884 6.572 21.564 6.772 21.236 7.028L20.672 6.32C20.896 6.128 21.14 5.956 21.404 5.804C21.676 5.652 21.968 5.532 22.28 5.444C22.6 5.356 22.94 5.312 23.3 5.312C23.836 5.312 24.296 5.404 24.68 5.588C25.064 5.772 25.36 6.036 25.568 6.38C25.784 6.716 25.892 7.12 25.892 7.592C25.892 7.928 25.84 8.248 25.736 8.552C25.632 8.848 25.484 9.14 25.292 9.428C25.1 9.716 24.868 10.008 24.596 10.304C24.324 10.6 24.024 10.908 23.696 11.228L21.908 12.992V13.04H26.24V14ZM27.7312 13.352C27.7312 13.056 27.8032 12.848 27.9472 12.728C28.0912 12.608 28.2632 12.548 28.4632 12.548C28.6712 12.548 28.8472 12.608 28.9912 12.728C29.1432 12.848 29.2192 13.056 29.2192 13.352C29.2192 13.64 29.1432 13.848 28.9912 13.976C28.8472 14.104 28.6712 14.168 28.4632 14.168C28.2632 14.168 28.0912 14.104 27.9472 13.976C27.8032 13.848 27.7312 13.64 27.7312 13.352ZM31.7101 14L35.2261 6.392H30.6061V5.432H36.3541V6.248L32.8741 14H31.7101ZM43.6625 14.12C43.0945 14.12 42.5865 14.004 42.1385 13.772C41.6985 13.54 41.3505 13.18 41.0945 12.692C40.8465 12.204 40.7225 11.58 40.7225 10.82C40.7225 10.028 40.8545 9.384 41.1185 8.888C41.3825 8.392 41.7385 8.028 42.1865 7.796C42.6425 7.564 43.1585 7.448 43.7345 7.448C44.0625 7.448 44.3785 7.484 44.6825 7.556C44.9865 7.62 45.2345 7.7 45.4265 7.796L45.1025 8.672C44.9105 8.6 44.6865 8.532 44.4305 8.468C44.1745 8.404 43.9345 8.372 43.7105 8.372C43.2785 8.372 42.9225 8.464 42.6425 8.648C42.3625 8.832 42.1545 9.104 42.0185 9.464C41.8825 9.824 41.8145 10.272 41.8145 10.808C41.8145 11.32 41.8825 11.756 42.0185 12.116C42.1545 12.476 42.3585 12.748 42.6305 12.932C42.9025 13.116 43.2425 13.208 43.6505 13.208C44.0025 13.208 44.3105 13.172 44.5745 13.1C44.8465 13.028 45.0945 12.94 45.3185 12.836V13.772C45.1025 13.884 44.8625 13.968 44.5985 14.024C44.3425 14.088 44.0305 14.12 43.6625 14.12ZM53.9041 7.448C54.6321 7.448 55.1761 7.636 55.5361 8.012C55.8961 8.38 56.0761 8.98 56.0761 9.812V14H55.0321V9.86C55.0321 9.356 54.9241 8.976 54.7081 8.72C54.5001 8.464 54.1721 8.336 53.7241 8.336C53.1001 8.336 52.6521 8.516 52.3801 8.876C52.1161 9.236 51.9841 9.76 51.9841 10.448V14H50.9401V9.86C50.9401 9.524 50.8921 9.244 50.7961 9.02C50.7001 8.788 50.5561 8.616 50.3641 8.504C50.1721 8.392 49.9241 8.336 49.6201 8.336C49.1881 8.336 48.8481 8.428 48.6001 8.612C48.3521 8.788 48.1721 9.048 48.0601 9.392C47.9561 9.736 47.9041 10.16 47.9041 10.664V14H46.8481V7.568H47.7001L47.8561 8.444H47.9161C48.0521 8.22 48.2161 8.036 48.4081 7.892C48.6081 7.74 48.8281 7.628 49.0681 7.556C49.3081 7.484 49.5561 7.448 49.8121 7.448C50.3081 7.448 50.7201 7.536 51.0481 7.712C51.3841 7.888 51.6281 8.16 51.7801 8.528H51.8401C52.0561 8.16 52.3481 7.888 52.7161 7.712C53.0921 7.536 53.4881 7.448 53.9041 7.448Z" fill="#464646"/>
<path d="M9.11905 12.5911V13.0911H9.61905H11.4375L8.00675 16.4815L4.57599 13.0911H6.38094H6.88094V12.5911V5.39111V4.89111H6.38094H4.58049L7.9955 1.51629L11.4105 4.89111H9.61905H9.11905V5.39111V12.5911ZM11.5073 4.98675C11.5073 4.98673 11.5072 4.9867 11.5072 4.98668L11.5073 4.98675Z" stroke="#282828"/>
<path d="M99.916 7.436C99.916 7.82 99.844 8.152 99.7 8.432C99.556 8.712 99.348 8.94 99.076 9.116C98.812 9.292 98.5 9.416 98.14 9.488V9.536C98.828 9.616 99.34 9.832 99.676 10.184C100.012 10.536 100.18 10.996 100.18 11.564C100.18 12.06 100.064 12.504 99.832 12.896C99.6 13.28 99.24 13.58 98.752 13.796C98.272 14.012 97.652 14.12 96.892 14.12C96.444 14.12 96.028 14.084 95.644 14.012C95.26 13.948 94.892 13.828 94.54 13.652V12.668C94.9 12.844 95.288 12.984 95.704 13.088C96.12 13.184 96.52 13.232 96.904 13.232C97.672 13.232 98.224 13.084 98.56 12.788C98.904 12.484 99.076 12.068 99.076 11.54C99.076 11.18 98.98 10.892 98.788 10.676C98.604 10.452 98.332 10.288 97.972 10.184C97.612 10.08 97.18 10.028 96.676 10.028H95.848V9.128H96.688C97.16 9.128 97.552 9.06 97.864 8.924C98.184 8.788 98.424 8.6 98.584 8.36C98.752 8.112 98.836 7.828 98.836 7.508C98.836 7.092 98.696 6.772 98.416 6.548C98.136 6.316 97.756 6.2 97.276 6.2C96.972 6.2 96.696 6.232 96.448 6.296C96.2 6.352 95.968 6.436 95.752 6.548C95.544 6.652 95.332 6.776 95.116 6.92L94.588 6.2C94.796 6.04 95.032 5.892 95.296 5.756C95.568 5.62 95.868 5.512 96.196 5.432C96.524 5.352 96.88 5.312 97.264 5.312C98.16 5.312 98.824 5.512 99.256 5.912C99.696 6.312 99.916 6.82 99.916 7.436ZM101.731 13.352C101.731 13.056 101.803 12.848 101.947 12.728C102.091 12.608 102.263 12.548 102.463 12.548C102.671 12.548 102.847 12.608 102.991 12.728C103.143 12.848 103.219 13.056 103.219 13.352C103.219 13.64 103.143 13.848 102.991 13.976C102.847 14.104 102.671 14.168 102.463 14.168C102.263 14.168 102.091 14.104 101.947 13.976C101.803 13.848 101.731 13.64 101.731 13.352ZM110.318 9.092C110.318 9.58 110.282 10.068 110.21 10.556C110.146 11.036 110.03 11.492 109.862 11.924C109.694 12.348 109.462 12.728 109.166 13.064C108.87 13.392 108.494 13.652 108.038 13.844C107.582 14.028 107.03 14.12 106.382 14.12C106.222 14.12 106.034 14.108 105.818 14.084C105.61 14.068 105.438 14.04 105.302 14V13.1C105.446 13.148 105.614 13.188 105.806 13.22C105.998 13.244 106.182 13.256 106.358 13.256C106.918 13.256 107.378 13.164 107.738 12.98C108.106 12.796 108.398 12.548 108.614 12.236C108.83 11.916 108.986 11.548 109.082 11.132C109.178 10.708 109.234 10.264 109.25 9.8H109.178C109.058 9.984 108.906 10.152 108.722 10.304C108.538 10.456 108.314 10.576 108.05 10.664C107.794 10.752 107.49 10.796 107.138 10.796C106.65 10.796 106.218 10.696 105.842 10.496C105.474 10.288 105.186 9.992 104.978 9.608C104.778 9.224 104.678 8.756 104.678 8.204C104.678 7.604 104.79 7.088 105.014 6.656C105.246 6.224 105.566 5.892 105.974 5.66C106.382 5.428 106.862 5.312 107.414 5.312C107.822 5.312 108.202 5.392 108.554 5.552C108.906 5.704 109.214 5.936 109.478 6.248C109.742 6.56 109.946 6.952 110.09 7.424C110.242 7.896 110.318 8.452 110.318 9.092ZM107.414 6.2C106.918 6.2 106.51 6.364 106.19 6.692C105.878 7.02 105.722 7.52 105.722 8.192C105.722 8.744 105.854 9.18 106.118 9.5C106.39 9.812 106.806 9.968 107.366 9.968C107.75 9.968 108.082 9.892 108.362 9.74C108.642 9.58 108.858 9.38 109.01 9.14C109.17 8.9 109.25 8.652 109.25 8.396C109.25 8.14 109.21 7.884 109.13 7.628C109.058 7.364 108.946 7.124 108.794 6.908C108.642 6.692 108.45 6.52 108.218 6.392C107.986 6.264 107.718 6.2 107.414 6.2ZM117.363 7.448C117.787 7.448 118.167 7.528 118.503 7.688C118.847 7.848 119.139 8.092 119.379 8.42H119.439L119.583 7.568H120.423V14.108C120.423 14.716 120.319 15.224 120.111 15.632C119.903 16.048 119.587 16.36 119.163 16.568C118.739 16.776 118.199 16.88 117.543 16.88C117.079 16.88 116.651 16.844 116.259 16.772C115.875 16.708 115.531 16.608 115.227 16.472V15.5C115.435 15.604 115.663 15.692 115.911 15.764C116.159 15.844 116.427 15.904 116.715 15.944C117.003 15.984 117.299 16.004 117.603 16.004C118.155 16.004 118.587 15.84 118.899 15.512C119.219 15.192 119.379 14.752 119.379 14.192V13.94C119.379 13.844 119.383 13.708 119.391 13.532C119.399 13.348 119.407 13.22 119.415 13.148H119.367C119.143 13.476 118.863 13.72 118.527 13.88C118.199 14.04 117.815 14.12 117.375 14.12C116.543 14.12 115.891 13.828 115.419 13.244C114.955 12.66 114.723 11.844 114.723 10.796C114.723 10.108 114.827 9.516 115.035 9.02C115.251 8.516 115.555 8.128 115.947 7.856C116.339 7.584 116.811 7.448 117.363 7.448ZM117.507 8.336C117.147 8.336 116.839 8.432 116.583 8.624C116.335 8.816 116.143 9.096 116.007 9.464C115.879 9.832 115.815 10.28 115.815 10.808C115.815 11.6 115.959 12.208 116.247 12.632C116.543 13.048 116.971 13.256 117.531 13.256C117.859 13.256 118.139 13.216 118.371 13.136C118.603 13.048 118.795 12.916 118.947 12.74C119.099 12.556 119.211 12.324 119.283 12.044C119.355 11.764 119.391 11.432 119.391 11.048V10.796C119.391 10.212 119.323 9.74 119.187 9.38C119.059 9.02 118.855 8.756 118.575 8.588C118.295 8.42 117.939 8.336 117.507 8.336Z" fill="#464646"/>
<path d="M87.8676 6.30608V6.34647L87.8741 6.38633L89.4982 16.374C89.4857 16.4453 89.4237 16.5 89.347 16.5H74.6528C74.5768 16.5 74.5147 16.4457 74.5023 16.3741L76.1262 6.38632L76.1327 6.34646V6.30608C76.1327 6.22117 76.2016 6.15278 76.2855 6.15278H78.4624H78.8973H78.9624H79.3973H84.6021H85.0375H85.1021H85.5375H87.7143C87.7988 6.15278 87.8676 6.22165 87.8676 6.30608ZM80.5984 1.50691C79.821 1.50691 79.1655 2.02815 78.9624 2.7403V2.63285C78.9624 2.00704 79.4694 1.5 80.0952 1.5H83.9046C84.53 1.5 85.0375 2.00714 85.0375 2.63285V2.74191C84.8349 2.02895 84.1792 1.50691 83.4008 1.50691H80.5984Z" stroke="#282828"/>
</svg>
