<svg width="35" height="35" viewBox="0 0 35 35" fill="none" xmlns="http://www.w3.org/2000/svg">
<path d="M-3.05176e-05 4C-3.05176e-05 1.79086 1.79083 0 3.99997 0H30.9999C33.2091 0 34.9999 1.79086 34.9999 4V31C34.9999 33.2091 33.2091 35 30.9999 35H3.99997C1.79083 35 -3.05176e-05 33.2091 -3.05176e-05 31V4Z" fill="url(#paint0_linear_807_630)"/>
<path d="M27.9516 22.1893L28.7808 16.9806H23.5936V13.6019C23.5936 12.1766 24.3169 10.7864 26.6402 10.7864H29V6.35194C29 6.35194 26.8593 6 24.8137 6C20.5398 6 17.7489 8.49524 17.7489 13.0107V16.9806H13V22.1893H17.7489V35H21C21.9936 35 23.5936 35 23.5936 35V22.1893H27.9516Z" fill="white"/>
<defs>
<linearGradient id="paint0_linear_807_630" x1="17.5813" y1="-4.28139e-06" x2="17.5813" y2="34.7349" gradientUnits="userSpaceOnUse">
<stop stop-color="#18ACFE"/>
<stop offset="1" stop-color="#0163E0"/>
</linearGradient>
</defs>
</svg>
