<svg width="35" height="35" viewBox="0 0 35 35" fill="none" xmlns="http://www.w3.org/2000/svg">
<path d="M0 4C0 1.79086 1.79086 0 4 0H31C33.2091 0 35 1.79086 35 4V31C35 33.2091 33.2091 35 31 35H4C1.79086 35 0 33.2091 0 31V4Z" fill="white"/>
<path d="M29.0001 17.7555C29.0001 16.8099 28.9218 16.1199 28.7523 15.4044H17.7347V19.6721H24.2018C24.0715 20.7327 23.3674 22.3299 21.8027 23.4032L21.7808 23.5461L25.2644 26.1908L25.5057 26.2144C27.7222 24.2082 29.0001 21.2566 29.0001 17.7555Z" fill="#4285F4"/>
<path d="M17.734 29.0001C20.9024 29.0001 23.5622 27.9778 25.505 26.2145L21.802 23.4033C20.8111 24.0805 19.4812 24.5533 17.734 24.5533C14.6309 24.5533 11.9971 22.5472 11.0583 19.7744L10.9207 19.7859L7.29841 22.5331L7.25104 22.6622C9.18072 26.4189 13.1444 29.0001 17.734 29.0001Z" fill="#34A853"/>
<path d="M11.0589 19.7745C10.8112 19.0589 10.6678 18.2922 10.6678 17.5C10.6678 16.7077 10.8112 15.9411 11.0459 15.2256L11.0393 15.0732L7.37167 12.2818L7.25167 12.3377C6.45636 13.8966 6 15.6472 6 17.5C6 19.3528 6.45636 21.1033 7.25167 22.6622L11.0589 19.7745Z" fill="#FBBC05"/>
<path d="M17.7341 10.4466C19.9376 10.4466 21.424 11.3794 22.2715 12.1589L25.5833 8.99001C23.5493 7.13723 20.9024 6 17.7341 6C13.1445 6 9.18073 8.5811 7.25104 12.3377L11.0453 15.2256C11.9972 12.4528 14.6309 10.4466 17.7341 10.4466Z" fill="#EB4335"/>
</svg>
