<svg width="156" height="156" viewBox="0 0 156 156" fill="none" xmlns="http://www.w3.org/2000/svg">
<circle cx="78" cy="78" r="78" fill="#3EB09B"/>
<path fill-rule="evenodd" clip-rule="evenodd" d="M61.1086 29.9628C59.4495 30.2914 56.6377 31.0328 54.86 31.6098C53.0824 32.1869 50.2072 32.8722 48.471 33.1327C43.4514 33.8848 38.2078 36.8598 34.0381 41.3204C31.7188 43.802 31.4025 44.5446 33.371 42.8873C34.7931 41.6896 38.0285 39.8972 38.2918 40.1612C38.3772 40.2466 37.7071 41.0349 36.8025 41.9134C33.3563 45.2606 31.1504 51.7513 31.2008 58.3955L31.2305 62.2769L31.808 59.9049C32.5453 56.8778 33.7873 54.0534 35.2115 52.164L36.3324 50.6769L36.0691 54.536C35.8855 57.222 36.0906 60.9525 36.7431 66.8053C37.7346 75.6987 37.6592 77.9982 36.2889 80.6868C35.4386 82.3541 35.2494 83.9213 35.7976 84.7507C35.9717 85.0142 36.7388 85.5498 37.5019 85.9414C38.2656 86.3326 39.0964 87.039 39.3489 87.5108C39.6786 88.128 40.2513 88.3691 41.3868 88.3691C42.6154 88.3691 42.8512 88.4842 42.4491 88.8866C41.6967 89.6396 41.7988 90.3215 43.0813 93.1174C44.8188 96.9057 46.3801 97.6493 52.4899 97.5979C55.2893 97.5742 58.4321 97.2659 60.1657 96.8449C61.7804 96.4529 63.2086 96.132 63.3396 96.132C63.7438 96.132 63.044 100.923 62.1541 104.25C60.8526 109.116 59.9257 110.571 56.5644 113.026C52.8773 115.718 52.3632 117.493 55.7835 115.723C57.55 114.809 57.8538 115.282 56.4446 116.753C55.0298 118.231 55.0031 118.558 56.2972 118.558C56.8717 118.558 57.7973 118.003 58.4549 117.265C59.7813 115.775 60.7449 115.499 60.0442 116.809C59.7973 117.271 59.403 117.767 59.1673 117.913C58.5157 118.316 58.6553 119.421 59.3577 119.421C59.6982 119.421 60.6889 118.693 61.5585 117.804C63.1108 116.217 63.3228 116.433 62.404 118.666C61.9524 119.764 62.7345 119.603 64.8746 118.158C66.4608 117.086 66.8616 116.505 67.5141 114.325L68.2828 111.755L67.1555 109.442C65.861 106.788 66.4281 107.407 68.7702 111.208C69.6662 112.661 70.5797 113.738 70.8012 113.601C71.514 113.16 72.0919 110.235 72.1225 106.914C72.1626 102.531 72.9339 104.381 73.0016 109.023C73.0649 113.362 71.9518 115.641 67.4809 120.324C65.0586 122.862 64.3243 123.89 64.6802 124.246C65.0362 124.602 65.571 124.417 66.7194 123.541C68.5948 122.109 69.1546 122.407 67.8653 124.153C66.7935 125.604 66.697 126.16 67.4649 126.459C67.7614 126.574 68.7146 125.863 69.5843 124.878C70.4535 123.894 71.3132 123.236 71.4946 123.418C71.676 123.6 71.595 123.978 71.3145 124.258C70.7556 124.818 70.6099 126.756 71.1279 126.746C71.7795 126.733 72.425 126.073 73.1257 124.704C74.2573 122.494 75.1451 122.893 74.2629 125.215C73.6264 126.891 74.562 126.62 76.7137 124.506C78.2478 123 78.5615 122.414 78.5615 121.052C78.5615 119.93 78.9537 118.872 79.8061 117.695C82.1629 114.438 82.8463 109.975 81.7875 104.758C81.5957 103.813 81.6462 103.839 82.1948 104.973C83.803 108.298 83.3712 113.458 81.1359 117.62L79.9026 119.916L81.354 120.523C83.2277 121.307 89.7258 122.44 92.3455 122.44H94.3812L94.626 119.529C94.8729 116.596 96.1916 110.613 96.5186 110.941C96.6156 111.038 96.4936 112.378 96.2476 113.92C95.7878 116.8 96.123 119.968 97.1069 122.04C98.0136 123.949 99.933 125.093 102.642 125.339C105.876 125.633 107.562 125.052 111.131 122.414C112.718 121.243 114.198 120.283 114.421 120.283C115.488 120.283 117.286 122.826 117.573 124.742C117.941 127.197 118.771 127.367 120.967 125.437C123.226 123.452 123.592 121.871 123.567 114.212C123.543 106.81 123.119 104.925 121.377 104.488C119.729 104.074 118.103 105.027 113.856 108.893C109.785 112.599 108.405 113.466 111.059 110.65C113.866 107.672 115.091 102.012 113.838 97.8235C112.704 94.0386 109.141 91.4259 104.617 91.0624C101.261 90.7928 98.2252 91.4535 93.955 93.3831C91.5172 94.4845 89.9602 94.9158 88.4623 94.9042C86.4895 94.8891 83.7181 93.8933 83.7453 93.2097C83.7517 93.0381 85.2548 92.0241 87.085 90.9567C91.7391 88.2418 98.5208 81.4359 100.64 77.3522C104.023 70.8343 105.045 62.691 103.343 55.8078C102.329 51.7064 99.6016 46.2154 96.7966 42.6272C88.7114 32.2861 74.6219 27.2863 61.1086 29.9628Z" fill="#89D2C4"/>
</svg>
