<svg width="14" height="14" viewBox="0 0 14 14" fill="none" xmlns="http://www.w3.org/2000/svg">
<path d="M12.6617 0H9.30829V1.06466H12.0906L6.46936 6.68541L7.28821 7.50441L12.9186 1.87435V4.6651H13.9999V1.33826C14 0.599167 13.4008 0 12.6617 0Z" fill="white"/>
<path d="M11.9959 12.4207C11.9959 12.7469 11.7413 13.0112 11.4273 13.0112H1.57265C1.25864 13.0112 1.00404 12.7469 1.00404 12.4207V2.57908C1.00404 2.25297 1.25864 1.98862 1.57265 1.98862H7.85763V1H1.24267C0.556369 1 0 1.55637 0 2.24267V12.7573C0 13.4436 0.556369 14 1.24267 14H11.7573C12.4436 14 13 13.4436 13 12.7573V6.11768H11.996V12.4207H11.9959Z" fill="white"/>
</svg>
