<svg width="205" height="231" viewBox="0 0 205 231" fill="none" xmlns="http://www.w3.org/2000/svg">
<path opacity="0.2" fill-rule="evenodd" clip-rule="evenodd" d="M84.5112 -42.9822C79.8231 -42.0519 71.8778 -39.9533 66.8549 -38.3198C61.8321 -36.6863 53.7077 -34.7464 48.8018 -34.009C34.6183 -31.8799 19.8017 -23.4585 8.01954 -10.8314C1.46603 -3.80669 0.572257 -1.7044 6.13458 -6.39608C10.1529 -9.78635 19.2951 -14.8602 20.0391 -14.113C20.2802 -13.8713 18.3868 -11.6396 15.8309 -9.15274C6.09317 0.322201 -0.140076 18.6959 0.00239163 37.5041L0.0864112 48.4917L1.71809 41.777C3.80152 33.208 7.31084 25.2127 11.3352 19.8642L14.5024 15.6547L13.7584 26.5788C13.2397 34.1822 13.8193 44.7425 15.6628 61.3105C18.4647 86.4854 18.2516 92.9949 14.3794 100.606C11.977 105.325 11.4424 109.762 12.9913 112.11C13.4832 112.856 15.6507 114.372 17.8072 115.48C19.9649 116.588 22.3125 118.587 23.0261 119.923C23.9576 121.67 25.5759 122.352 28.7845 122.352C32.256 122.352 32.9221 122.678 31.786 123.818C29.66 125.949 29.9486 127.879 33.5724 135.794C38.482 146.518 42.8936 148.622 60.1578 148.477C68.0677 148.41 76.9482 147.537 81.8469 146.346C86.4095 145.236 90.4449 144.328 90.815 144.328C91.9572 144.328 89.9797 157.889 87.4652 167.307C83.7879 181.081 81.1687 185.201 71.6708 192.149C61.2524 199.771 59.7998 204.796 69.4644 199.786C74.4557 197.197 75.3141 198.537 71.3323 202.702C67.3347 206.886 67.2592 207.811 70.9159 207.811C72.539 207.811 75.1546 206.24 77.0127 204.149C80.7607 199.932 83.4834 199.151 81.5035 202.86C80.8058 204.166 79.6916 205.571 79.0256 205.984C77.1844 207.125 77.579 210.253 79.5638 210.253C80.5257 210.253 83.3252 208.193 85.7824 205.675C90.1685 201.182 90.7675 201.795 88.1715 208.116C86.8954 211.225 89.1054 210.769 95.1524 206.677C99.6346 203.645 100.767 201.998 102.611 195.828L104.783 188.554L101.598 182.006C97.9396 174.491 99.5421 176.245 106.16 187.003C108.692 191.116 111.273 194.165 111.899 193.778C113.913 192.53 115.546 184.249 115.632 174.849C115.746 162.441 117.925 167.68 118.116 180.82C118.295 193.103 115.15 199.552 102.517 212.811C95.6723 219.993 93.5974 222.903 94.6032 223.912C95.609 224.92 97.1201 224.396 100.365 221.916C105.665 217.862 107.246 218.707 103.603 223.648C100.575 227.755 100.302 229.33 102.472 230.177C103.31 230.503 106.003 228.49 108.46 225.702C110.916 222.914 113.346 221.054 113.858 221.568C114.371 222.082 114.142 223.152 113.349 223.947C111.77 225.531 111.358 231.018 112.822 230.989C114.663 230.951 116.487 229.083 118.467 225.208C121.665 218.953 124.173 220.082 121.681 226.655C119.882 231.398 122.526 230.631 128.605 224.649C132.94 220.383 133.827 218.724 133.827 214.871C133.827 211.694 134.935 208.699 137.343 205.366C144.003 196.149 145.934 183.514 142.942 168.744C142.4 166.069 142.543 166.145 144.093 169.355C148.637 178.766 147.417 193.375 141.101 205.155L137.616 211.656L141.717 213.373C147.012 215.592 165.373 218.799 172.775 218.799H178.528L179.219 210.558C179.917 202.256 183.643 185.32 184.567 186.248C184.841 186.522 184.497 190.317 183.801 194.68C182.502 202.834 183.449 211.801 186.229 217.666C188.791 223.072 194.215 226.311 201.87 227.007C211.006 227.837 215.771 226.192 225.857 218.727C230.341 215.41 234.523 212.695 235.154 212.695C238.169 212.695 243.249 219.891 244.06 225.314C245.1 232.266 247.444 232.747 253.65 227.284C260.032 221.665 261.067 217.19 260.997 195.509C260.929 174.553 259.729 169.219 254.807 167.98C250.152 166.808 245.557 169.506 233.555 180.452C222.054 190.943 218.154 193.397 225.654 185.423C233.583 176.994 237.046 160.974 233.504 149.116C230.302 138.402 220.234 131.006 207.451 129.977C197.968 129.214 189.389 131.084 177.323 136.546C170.435 139.664 166.035 140.885 161.803 140.852C156.228 140.809 148.397 137.99 148.474 136.055C148.492 135.569 152.74 132.699 157.911 129.677C171.062 121.992 190.224 102.726 196.213 91.1661C205.772 72.7156 208.659 49.6637 203.85 30.179C200.985 18.5689 193.278 3.02512 185.353 -7.13227C162.507 -36.4056 122.695 -50.5587 84.5112 -42.9822Z" fill="#89D2C4"/>
</svg>
