<svg width="38" height="30" viewBox="0 0 38 30" fill="none" xmlns="http://www.w3.org/2000/svg">
<path fill-rule="evenodd" clip-rule="evenodd" d="M31.1242 0.0356234C29.0871 0.25148 27.206 1.55279 26.2601 3.40024C25.8174 4.26485 25.6169 5.02567 25.5662 6.03292C25.5047 7.25442 25.6743 8.08745 26.2168 9.22889C26.575 9.98236 26.7352 10.2104 27.3512 10.8428C28.1562 11.6692 28.8978 12.1392 29.9729 12.5042C30.5529 12.7011 30.7743 12.7299 31.7531 12.7358C32.7052 12.7416 32.9629 12.7133 33.4919 12.5449C34.6122 12.1881 35.359 11.7297 36.1913 10.8875C37.0243 10.0448 37.4368 9.38031 37.7832 8.32332C37.9719 7.74711 37.9958 7.53632 37.9998 6.40907C38.0047 5.04307 37.9024 4.54658 37.4094 3.54499C36.2226 1.13357 33.7566 -0.243319 31.1242 0.0356234ZM21.2377 9.04529C20.78 9.12806 9.15396 12.1308 8.66669 12.292C7.96373 12.5247 6.99714 13.1985 6.53322 13.7794C5.55993 14.9981 5.17557 16.4878 5.458 17.947C5.70482 19.2218 5.89609 19.5222 8.517 22.7504L9.64836 24.1438L5.90048 24.186L2.1526 24.2283L1.65581 24.4648C1.05585 24.7504 0.51865 25.2625 0.220658 25.8328C0.0239287 26.2092 0 26.3468 0 27.0996C0 27.8511 0.0242599 27.991 0.22041 28.3702C0.659905 29.2197 1.37578 29.7582 2.29642 29.9318C2.59805 29.9886 4.93148 30.0108 8.95632 29.9951L15.152 29.9709L15.6229 29.7768C16.8489 29.2715 17.625 27.8403 17.3591 26.5757C17.3114 26.3483 16.7858 25.0321 16.1914 23.6506C15.5969 22.2692 15.1106 21.1069 15.1106 21.0678C15.1106 20.9796 14.8728 21.046 18.6295 20.0855C20.36 19.6431 21.8398 19.2614 21.9179 19.2374C22.0505 19.1968 22.0614 19.4774 22.0835 23.4846L22.1071 27.7752L22.3309 28.2078C23.3138 30.1086 25.9296 30.0347 26.8152 28.0811C26.9916 27.6921 26.9922 27.6664 26.9922 20.5124C26.9922 14.7462 26.9701 13.2427 26.8797 12.8696C26.4417 11.0623 24.9769 9.56213 23.2195 9.12121C22.7165 8.99496 21.7256 8.95704 21.2377 9.04529Z" fill="white"/>
</svg>
