<svg width="20" height="30" viewBox="0 0 20 30" fill="none" xmlns="http://www.w3.org/2000/svg">
<path fill-rule="evenodd" clip-rule="evenodd" d="M13.1725 0.0912124C13.0735 0.142511 12.5524 0.762621 12.0146 1.46916C11.4768 2.1757 9.94304 4.19092 8.60622 5.94746C7.26946 7.70399 4.84211 10.8914 3.21218 13.0305C1.58224 15.1697 0.186811 17.0199 0.111179 17.1422C-0.0817399 17.454 -0.019573 17.8444 0.266421 18.1172L0.482155 18.323L1.89377 18.3663C2.67019 18.3901 4.48279 18.413 5.92183 18.4173C7.36087 18.4214 8.5737 18.4469 8.6171 18.4737C8.67159 18.5075 8.16135 20.1338 6.96296 23.7457C6.00988 26.6183 5.22872 29.0466 5.22711 29.1418C5.22055 29.5209 5.77538 30 6.22073 30C6.5617 30 6.79878 29.8224 7.26088 29.2207C8.88991 27.0997 12.5815 22.2981 15.3067 18.7555C17.0662 16.4684 18.8315 14.172 19.2296 13.6523C20.0112 12.6324 20.1 12.4233 19.9234 12.0201C19.7214 11.5591 19.8731 11.5738 15.2433 11.5677C12.9562 11.5647 11.0849 11.5463 11.0849 11.5268C11.0849 11.5074 11.8699 9.13138 12.8292 6.24687C13.7886 3.36236 14.5735 0.929226 14.5735 0.839935C14.5735 0.606462 14.2963 0.244377 14.0139 0.10911C13.724 -0.0298822 13.4185 -0.0363359 13.1725 0.0912124Z" fill="white"/>
</svg>
