<svg width="30" height="30" viewBox="0 0 30 30" fill="none" xmlns="http://www.w3.org/2000/svg">
<path d="M30 15C30 23.2843 23.2843 30 15 30C6.71573 30 0 23.2843 0 15C0 6.71573 6.71573 0 15 0C23.2843 0 30 6.71573 30 15ZM4.5 15C4.5 20.799 9.20101 25.5 15 25.5C20.799 25.5 25.5 20.799 25.5 15C25.5 9.20101 20.799 4.5 15 4.5C9.20101 4.5 4.5 9.20101 4.5 15Z" fill="#F5F5F5"/>
<g filter="url(#filter0_d_807_60)">
<path d="M15 0C17.0407 2.43356e-08 19.06 0.41642 20.9343 1.22378C22.8085 2.03113 24.4983 3.21245 25.9003 4.69542C27.3022 6.1784 28.3868 7.93185 29.0876 9.84847C29.7885 11.7651 30.0909 13.8046 29.9763 15.8421L25.4834 15.5895C25.5636 14.1632 25.352 12.7356 24.8614 11.3939C24.3707 10.0523 23.6115 8.82488 22.6302 7.7868C21.6488 6.74871 20.466 5.92179 19.154 5.35664C17.842 4.79149 16.4285 4.5 15 4.5V0Z" fill="#3EB09B"/>
</g>
<defs>
<filter id="filter0_d_807_60" x="11" y="0" width="19" height="19.8421" filterUnits="userSpaceOnUse" color-interpolation-filters="sRGB">
<feFlood flood-opacity="0" result="BackgroundImageFix"/>
<feColorMatrix in="SourceAlpha" type="matrix" values="0 0 0 0 0 0 0 0 0 0 0 0 0 0 0 0 0 0 127 0" result="hardAlpha"/>
<feOffset dx="-2" dy="2"/>
<feGaussianBlur stdDeviation="1"/>
<feColorMatrix type="matrix" values="0 0 0 0 0.243137 0 0 0 0 0.690196 0 0 0 0 0.607843 0 0 0 0.2 0"/>
<feBlend mode="normal" in2="BackgroundImageFix" result="effect1_dropShadow_807_60"/>
<feBlend mode="normal" in="SourceGraphic" in2="effect1_dropShadow_807_60" result="shape"/>
</filter>
</defs>
</svg>
