<svg width="30" height="30" viewBox="0 0 30 30" fill="none" xmlns="http://www.w3.org/2000/svg">
<path d="M30 15C30 23.2843 23.2843 30 15 30C6.71573 30 0 23.2843 0 15C0 6.71573 6.71573 0 15 0C23.2843 0 30 6.71573 30 15ZM4.5 15C4.5 20.799 9.20101 25.5 15 25.5C20.799 25.5 25.5 20.799 25.5 15C25.5 9.20101 20.799 4.5 15 4.5C9.20101 4.5 4.5 9.20101 4.5 15Z" fill="#F5F5F5"/>
<g filter="url(#filter0_d_807_53)">
<path d="M15 0C16.9698 2.349e-08 18.9204 0.387987 20.7403 1.14181C22.5601 1.89563 24.2137 3.00052 25.6066 4.3934C26.9995 5.78628 28.1044 7.43987 28.8582 9.25975C29.612 11.0796 30 13.0302 30 15L25.5 15C25.5 13.6211 25.2284 12.2557 24.7007 10.9818C24.1731 9.70791 23.3996 8.5504 22.4246 7.57538C21.4496 6.60036 20.2921 5.82694 19.0182 5.29926C17.7443 4.77159 16.3789 4.5 15 4.5V0Z" fill="#3EB09B"/>
</g>
<defs>
<filter id="filter0_d_807_53" x="11" y="0" width="19" height="19" filterUnits="userSpaceOnUse" color-interpolation-filters="sRGB">
<feFlood flood-opacity="0" result="BackgroundImageFix"/>
<feColorMatrix in="SourceAlpha" type="matrix" values="0 0 0 0 0 0 0 0 0 0 0 0 0 0 0 0 0 0 127 0" result="hardAlpha"/>
<feOffset dx="-2" dy="2"/>
<feGaussianBlur stdDeviation="1"/>
<feColorMatrix type="matrix" values="0 0 0 0 0.243137 0 0 0 0 0.690196 0 0 0 0 0.607843 0 0 0 0.2 0"/>
<feBlend mode="normal" in2="BackgroundImageFix" result="effect1_dropShadow_807_53"/>
<feBlend mode="normal" in="SourceGraphic" in2="effect1_dropShadow_807_53" result="shape"/>
</filter>
</defs>
</svg>
