<svg width="328" height="30" viewBox="0 0 328 30" fill="none" xmlns="http://www.w3.org/2000/svg">
<path opacity="0.1" fill-rule="evenodd" clip-rule="evenodd" d="M-21.5004 -0.0244853L-14.3592 11.5C-6.3785 14.5227 25.4676 5.33992 41.5 9C58.8763 12.7001 59.9464 20.3036 76.0853 20.3858C92.236 20.0703 104.349 14.3154 120.5 14C136.651 13.6846 158.159 19.6436 174.369 17.3405C190.578 15.0373 206.895 9.1561 223.093 7.25046C239.302 4.94726 256.738 6.65956 272.782 9.92208C288.838 12.7871 304.847 17.2422 320.974 17.7219C337.101 18.2016 353.346 14.7057 370.888 12.8401C387.098 10.5369 403.26 9.82387 411.348 9.26861L419.423 9.11089L418.382 44.0954L410.319 43.8556C402.255 43.6157 386.128 43.1361 370.001 42.6564C352.53 42.1368 336.403 41.6571 320.276 41.1774C304.149 40.6978 288.022 40.2181 271.895 39.7384C255.768 39.2588 238.297 38.7391 222.17 38.2595C206.043 37.7798 189.916 37.3001 173.789 36.8205C157.662 36.3408 140.191 35.8212 124.064 35.3415C107.937 34.8618 91.8103 34.3822 75.6833 33.9025C59.5562 33.4228 43.4292 32.9432 25.9583 32.4235C9.83128 31.9439 -6.29573 31.4642 -14.3592 31.2244L-22.4227 30.9845L-21.5004 -0.0244853Z" fill="white"/>
</svg>
