<svg width="328" height="25" viewBox="0 0 328 25" fill="none" xmlns="http://www.w3.org/2000/svg">
<path opacity="0.1" fill-rule="evenodd" clip-rule="evenodd" d="M419 3.97727L410.933 6.36364C402.866 9.14773 386.732 14.3182 370.598 17.5C353.119 20.6818 347.134 16.8977 331 16.5C314.866 15.7045 297.634 7.79545 281.5 7C265.366 6.20455 238.835 18.2955 222.701 15.5114C206.567 12.7273 190.433 6.36364 174.299 3.97727C158.165 1.19318 140.686 2.38636 124.552 5.17045C108.418 7.55682 92.2835 11.5341 76.1494 11.5341C60.0152 11.5341 43.8811 7.55682 26.4024 5.17045C10.2683 2.38636 -5.86584 1.19318 -13.9329 0.397727L-22 0V35H-13.9329C-5.86584 35 10.2683 35 26.4024 35C43.8811 35 60.0152 35 76.1494 35C92.2835 35 108.418 35 124.552 35C140.686 35 158.165 35 174.299 35C190.433 35 206.567 35 222.701 35C238.835 35 256.314 35 272.448 35C288.582 35 304.716 35 320.851 35C336.985 35 353.119 35 370.598 35C386.732 35 402.866 35 410.933 35H419V3.97727Z" fill="white"/>
</svg>
