<svg width="44" height="40" viewBox="0 0 44 40" fill="none" xmlns="http://www.w3.org/2000/svg">
<g filter="url(#filter0_dd_807_539)">
<rect x="8" y="4" width="32" height="32" rx="4" fill="#7A0B44"/>
<path d="M19.8537 19.328C19.3417 19.328 18.8937 19.2267 18.5097 19.024C18.1364 18.8107 17.843 18.5227 17.6297 18.16C17.4164 17.7867 17.3097 17.36 17.3097 16.88C17.3097 16.3893 17.411 15.9627 17.6137 15.6C17.827 15.2267 18.1204 14.9387 18.4937 14.736C18.8777 14.5227 19.331 14.416 19.8537 14.416C20.355 14.416 20.7977 14.5227 21.1817 14.736C21.5657 14.9387 21.8644 15.2267 22.0777 15.6C22.291 15.9627 22.3977 16.3893 22.3977 16.88C22.3977 17.36 22.291 17.7867 22.0777 18.16C21.8644 18.5227 21.5657 18.8107 21.1817 19.024C20.7977 19.2267 20.355 19.328 19.8537 19.328ZM19.8697 18.384C20.3817 18.384 20.755 18.2453 20.9897 17.968C21.235 17.6907 21.3577 17.328 21.3577 16.88C21.3577 16.5707 21.299 16.304 21.1817 16.08C21.075 15.8453 20.9097 15.664 20.6857 15.536C20.4724 15.408 20.2004 15.344 19.8697 15.344C19.347 15.344 18.963 15.4827 18.7177 15.76C18.4724 16.0373 18.3497 16.4107 18.3497 16.88C18.3497 17.328 18.4724 17.6907 18.7177 17.968C18.963 18.2453 19.347 18.384 19.8697 18.384ZM26.2654 26H24.8254V14.576H31.2094V15.84H26.2654V19.888H30.9054V21.152H26.2654V26Z" fill="white"/>
</g>
<defs>
<filter id="filter0_dd_807_539" x="0" y="-2" width="48" height="48" filterUnits="userSpaceOnUse" color-interpolation-filters="sRGB">
<feFlood flood-opacity="0" result="BackgroundImageFix"/>
<feColorMatrix in="SourceAlpha" type="matrix" values="0 0 0 0 0 0 0 0 0 0 0 0 0 0 0 0 0 0 127 0" result="hardAlpha"/>
<feOffset dy="4"/>
<feGaussianBlur stdDeviation="2"/>
<feColorMatrix type="matrix" values="0 0 0 0 0.478431 0 0 0 0 0.0431373 0 0 0 0 0.266667 0 0 0 0.08 0"/>
<feBlend mode="normal" in2="BackgroundImageFix" result="effect1_dropShadow_807_539"/>
<feColorMatrix in="SourceAlpha" type="matrix" values="0 0 0 0 0 0 0 0 0 0 0 0 0 0 0 0 0 0 127 0" result="hardAlpha"/>
<feOffset dy="2"/>
<feGaussianBlur stdDeviation="4"/>
<feColorMatrix type="matrix" values="0 0 0 0 0.478431 0 0 0 0 0.0431373 0 0 0 0 0.266667 0 0 0 0.08 0"/>
<feBlend mode="normal" in2="effect1_dropShadow_807_539" result="effect2_dropShadow_807_539"/>
<feBlend mode="normal" in="SourceGraphic" in2="effect2_dropShadow_807_539" result="shape"/>
</filter>
</defs>
</svg>
