<svg width="35" height="35" viewBox="0 0 35 35" fill="none" xmlns="http://www.w3.org/2000/svg">
<path d="M-6.10352e-05 4C-6.10352e-05 1.79086 1.7908 0 3.99994 0H30.9999C33.209 0 34.9999 1.79086 34.9999 4V31C34.9999 33.2091 33.209 35 30.9999 35H3.99994C1.7908 35 -6.10352e-05 33.2091 -6.10352e-05 31V4Z" fill="white"/>
<path d="M13.2193 27C10.5619 27 8.08487 26.2227 5.99994 24.8816C7.77011 24.9968 10.8941 24.7209 12.8372 22.857C9.91411 22.7221 8.59587 20.4675 8.42392 19.5041C8.67229 19.6004 9.85679 19.716 10.5255 19.4462C7.163 18.5984 6.64717 15.6308 6.76179 14.7252C7.39226 15.1684 8.46213 15.3225 8.88244 15.284C5.74923 13.0294 6.87642 9.63793 7.43047 8.90568C9.67897 12.0385 13.0488 13.7979 17.2177 13.8958C17.1391 13.5491 17.0976 13.1882 17.0976 12.8174C17.0976 10.1568 19.236 8 21.8738 8C23.252 8 24.4939 8.5888 25.3657 9.53061C26.2867 9.31357 27.6728 8.80549 28.3504 8.36613C28.0088 9.59939 26.9455 10.6282 26.3023 11.0095C26.3076 11.0225 26.2971 10.9965 26.3023 11.0095C26.8673 10.9236 28.396 10.6281 28.9999 10.216C28.7013 10.9089 27.5739 12.0608 26.6488 12.7057C26.8209 20.3401 21.0128 27 13.2193 27Z" fill="#47ACDF"/>
</svg>
