<svg width="360" height="330" viewBox="0 0 360 330" fill="none" xmlns="http://www.w3.org/2000/svg">
<path fill-rule="evenodd" clip-rule="evenodd" d="M501 0H467.075C436.919 0 372.839 0 308.758 44.9072C240.908 93.5567 176.828 187.113 112.747 209.567C48.6667 228.278 -15.4139 175.887 -79.4944 145.948C-143.575 119.753 -211.425 119.753 -275.506 108.526C-339.586 93.5567 -403.667 67.3608 -467.747 59.8763C-531.828 52.3918 -595.908 67.3608 -663.758 78.5876C-727.839 93.5567 -791.919 108.526 -822.075 112.268L-856 119.753V339.5H-822.075C-791.919 339.5 -727.839 339.5 -663.758 339.5C-595.908 339.5 -531.828 339.5 -467.747 339.5C-403.667 339.5 -339.586 339.5 -275.506 339.5C-211.425 339.5 -143.575 339.5 -79.4944 339.5C-15.4139 339.5 48.6667 339.5 112.747 339.5C176.828 339.5 240.908 339.5 308.758 339.5C372.839 339.5 436.919 339.5 467.075 339.5H501V0Z" fill="#3EB09B"/>
</svg>
