<svg width="16" height="16" viewBox="0 0 16 16" fill="none" xmlns="http://www.w3.org/2000/svg">
<path d="M13.8676 5.30608V5.34647L13.8741 5.38633L15.4982 15.374C15.4857 15.4453 15.4237 15.5 15.347 15.5H0.65282C0.576793 15.5 0.514697 15.4457 0.502267 15.3741L2.12621 5.38632L2.13269 5.34646V5.30608C2.13269 5.22117 2.20156 5.15278 2.28551 5.15278H4.46237H4.89728H4.96237H5.39728H10.6021H11.0375H11.1021H11.5375H13.7143C13.7988 5.15278 13.8676 5.22165 13.8676 5.30608ZM6.59844 0.50691C5.82099 0.50691 5.16553 1.02815 4.96237 1.7403V1.63285C4.96237 1.00704 5.46942 0.5 6.09522 0.5H9.90462C10.53 0.5 11.0375 1.00714 11.0375 1.63285V1.74191C10.8349 1.02895 10.1792 0.50691 9.40076 0.50691H6.59844Z" stroke="#282828"/>
</svg>
