<svg width="44" height="40" viewBox="0 0 44 40" fill="none" xmlns="http://www.w3.org/2000/svg">
<g filter="url(#filter0_dd_807_546)">
<rect x="8" y="4" width="32" height="32" rx="4" fill="#7B97A5"/>
<path d="M17.5567 20.192C17.5567 20.3627 17.546 20.5867 17.5247 20.864C17.514 21.1413 17.5034 21.3813 17.4927 21.584H17.5567C17.6207 21.4987 17.7167 21.376 17.8447 21.216C17.9727 21.056 18.1007 20.896 18.2287 20.736C18.3674 20.5653 18.4847 20.4267 18.5807 20.32L21.3167 17.424H22.9647L19.4927 21.088L23.2047 26H21.5087L18.5327 22L17.5567 22.848V26H16.1647V13.84H17.5567V20.192ZM27.7516 17.264C28.3169 17.264 28.8236 17.3707 29.2716 17.584C29.7302 17.7973 30.1196 18.1227 30.4396 18.56H30.5196L30.7116 17.424H31.8316V26.144C31.8316 26.9547 31.6929 27.632 31.4156 28.176C31.1382 28.7307 30.7169 29.1467 30.1516 29.424C29.5862 29.7013 28.8662 29.84 27.9916 29.84C27.3729 29.84 26.8022 29.792 26.2796 29.696C25.7676 29.6107 25.3089 29.4773 24.9036 29.296V28C25.1809 28.1387 25.4849 28.256 25.8156 28.352C26.1462 28.4587 26.5036 28.5387 26.8876 28.592C27.2716 28.6453 27.6662 28.672 28.0716 28.672C28.8076 28.672 29.3836 28.4533 29.7996 28.016C30.2262 27.5893 30.4396 27.0027 30.4396 26.256V25.92C30.4396 25.792 30.4449 25.6107 30.4556 25.376C30.4662 25.1307 30.4769 24.96 30.4876 24.864H30.4236C30.1249 25.3013 29.7516 25.6267 29.3036 25.84C28.8662 26.0533 28.3542 26.16 27.7676 26.16C26.6582 26.16 25.7889 25.7707 25.1596 24.992C24.5409 24.2133 24.2316 23.1253 24.2316 21.728C24.2316 20.8107 24.3702 20.0213 24.6476 19.36C24.9356 18.688 25.3409 18.1707 25.8636 17.808C26.3862 17.4453 27.0156 17.264 27.7516 17.264ZM27.9436 18.448C27.4636 18.448 27.0529 18.576 26.7116 18.832C26.3809 19.088 26.1249 19.4613 25.9436 19.952C25.7729 20.4427 25.6876 21.04 25.6876 21.744C25.6876 22.8 25.8796 23.6107 26.2636 24.176C26.6582 24.7307 27.2289 25.008 27.9756 25.008C28.4129 25.008 28.7862 24.9547 29.0956 24.848C29.4049 24.7307 29.6609 24.5547 29.8636 24.32C30.0662 24.0747 30.2156 23.7653 30.3116 23.392C30.4076 23.0187 30.4556 22.576 30.4556 22.064V21.728C30.4556 20.9493 30.3649 20.32 30.1836 19.84C30.0129 19.36 29.7409 19.008 29.3676 18.784C28.9942 18.56 28.5196 18.448 27.9436 18.448Z" fill="white"/>
</g>
<defs>
<filter id="filter0_dd_807_546" x="0" y="-2" width="48" height="48" filterUnits="userSpaceOnUse" color-interpolation-filters="sRGB">
<feFlood flood-opacity="0" result="BackgroundImageFix"/>
<feColorMatrix in="SourceAlpha" type="matrix" values="0 0 0 0 0 0 0 0 0 0 0 0 0 0 0 0 0 0 127 0" result="hardAlpha"/>
<feOffset dy="4"/>
<feGaussianBlur stdDeviation="2"/>
<feColorMatrix type="matrix" values="0 0 0 0 0.482353 0 0 0 0 0.592157 0 0 0 0 0.647059 0 0 0 0.08 0"/>
<feBlend mode="normal" in2="BackgroundImageFix" result="effect1_dropShadow_807_546"/>
<feColorMatrix in="SourceAlpha" type="matrix" values="0 0 0 0 0 0 0 0 0 0 0 0 0 0 0 0 0 0 127 0" result="hardAlpha"/>
<feOffset dy="2"/>
<feGaussianBlur stdDeviation="4"/>
<feColorMatrix type="matrix" values="0 0 0 0 0.482353 0 0 0 0 0.592157 0 0 0 0 0.647059 0 0 0 0.08 0"/>
<feBlend mode="normal" in2="effect1_dropShadow_807_546" result="effect2_dropShadow_807_546"/>
<feBlend mode="normal" in="SourceGraphic" in2="effect2_dropShadow_807_546" result="shape"/>
</filter>
</defs>
</svg>
